# xmcd
#
# Track frame offsets:
#	150
#	16732
#	28924
#	51511
#	68987
#	91379
#	109563
#	122035
#	133881
#	152103
#	166831
#	181246
#
# Disc length: 2749 seconds
#
# Revision: 0
# Processed by: cddbd v1.5.1PL0 Copyright (c) Steve Scherf et al.
# Submitted via: audiograbber 1.83.01
#
DISCID=9f0abb0c
DTITLE=Various Artist - Yesterday - Atlas musical
DYEAR=1900
DGENRE=
TTITLE0=Ray Charles - Geeorgia on my mind
TTITLE1=The Mama's and the papa's - California Dreamin
TTITLE2=Santana - Europa (Earth's cry, heaven's smile)
TTITLE3=Albert Hammond - It never Rains in southern California
TTITLE4=Toto - Africa
TTITLE5=Brook Benton - Rainy night in Georgia
TTITLE6=Al Martino - Spanish eyes
TTITLE7=Cecilia - Mi querida España
TTITLE8=Sergio y Estíbaliz - Cantinero de Cuba
TTITLE9=Mediterraneo - Nº1 en USA
TTITLE10=Jorge Negrete - México lindo
TTITLE11=Nacha Guevara - No llores por mi Argentina
EXTD=
EXTT0=
EXTT1=
EXTT2=
EXTT3=
EXTT4=
EXTT5=
EXTT6=
EXTT7=
EXTT8=
EXTT9=
EXTT10=
EXTT11=
PLAYORDER=
